<svg xmlns="http://www.w3.org/2000/svg" viewBox="0 0 64 64">
  <ellipse cx="32" cy="56" rx="15" ry="4" fill="#d8b387" opacity="0.18"/>
  <path d="M32 13c4 0 6 3 6 6 0 3-2 5-4 7 4 3 6 7 6 12 0 3-1 5-3 8l6 6H21l6-6c-2-3-3-5-3-8 0-5 2-9 6-12-2-2-4-4-4-7 0-3 2-6 6-6Z" fill="#fbf4e6" stroke="#9c6a3b" stroke-width="2.4" stroke-linecap="round" stroke-linejoin="round"/>
  <path d="M30 22 36 28" fill="none" stroke="#9c6a3b" stroke-width="2.4" stroke-linecap="round" stroke-linejoin="round"/>
  <path d="M22 52h20" fill="none" stroke="#9c6a3b" stroke-width="2.4" stroke-linecap="round" stroke-linejoin="round"/>
  <path d="M18 58h28" fill="none" stroke="#9c6a3b" stroke-width="2.4" stroke-linecap="round" stroke-linejoin="round"/>
</svg>
